<svg width="34" height="34" viewBox="0 0 34 34" fill="none" xmlns="http://www.w3.org/2000/svg">
<g clip-path="url(#clip0)">
<path d="M16.9998 25.2068C21.5324 25.2068 25.2067 21.5325 25.2067 17C25.2067 12.4674 21.5324 8.79309 16.9998 8.79309C12.4673 8.79309 8.79297 12.4674 8.79297 17C8.79297 21.5325 12.4673 25.2068 16.9998 25.2068Z" fill="#F5BE3C"/>
<path d="M16.9997 22.8619C20.2372 22.8619 22.8617 20.2374 22.8617 16.9999C22.8617 13.7624 20.2372 11.1379 16.9997 11.1379C13.7622 11.1379 11.1377 13.7624 11.1377 16.9999C11.1377 20.2374 13.7622 22.8619 16.9997 22.8619Z" fill="#D2A53C"/>
<path d="M16.9999 20.5172C18.9424 20.5172 20.5171 18.9425 20.5171 17C20.5171 15.0575 18.9424 13.4828 16.9999 13.4828C15.0574 13.4828 13.4827 15.0575 13.4827 17C13.4827 18.9425 15.0574 20.5172 16.9999 20.5172Z" fill="#C3BC41"/>
<path d="M16.9998 11.1381C16.8547 11.1381 16.7096 11.0846 16.5962 10.9772C15.3806 9.82377 14.655 7.8021 14.655 5.56913C14.655 3.33616 15.3806 1.31463 16.5962 0.161018C16.8229 -0.0536727 17.1767 -0.0536727 17.4034 0.161018C18.6191 1.31449 19.3446 3.33616 19.3446 5.56913C19.3446 7.8021 18.6191 9.82364 17.4034 10.9772C17.2901 11.0846 17.1449 11.1381 16.9998 11.1381Z" fill="#FFE650"/>
<path d="M16.9998 34C16.8547 34 16.7096 33.9465 16.5962 33.8392C15.3806 32.6857 14.655 30.6641 14.655 28.4311C14.655 26.1981 15.3806 24.1765 16.5962 23.023C16.8229 22.8083 17.1767 22.8083 17.4034 23.023C18.6191 24.1764 19.3446 26.1981 19.3446 28.4311C19.3446 30.6641 18.6191 32.6857 17.4034 33.8392C17.2901 33.9465 17.1449 34 16.9998 34Z" fill="#FFE650"/>
<path d="M5.56893 19.345C3.33603 19.345 1.31443 18.6195 0.160819 17.4038C-0.0536063 17.1774 -0.0536063 16.823 0.160819 16.5966C1.31429 15.381 3.33596 14.6554 5.56893 14.6554C7.80191 14.6554 9.82344 15.381 10.977 16.5966C11.1915 16.823 11.1915 17.1774 10.977 17.4038C9.82344 18.6195 7.80184 19.345 5.56893 19.345Z" fill="#FFE650"/>
<path d="M28.431 19.345C26.1981 19.345 24.1764 18.6195 23.0229 17.4038C22.8085 17.1774 22.8085 16.823 23.0229 16.5966C24.1764 15.381 26.198 14.6554 28.431 14.6554C30.664 14.6554 32.6856 15.381 33.8391 16.5966C34.0535 16.823 34.0535 17.1774 33.8391 17.4038C32.6856 18.6195 30.664 19.345 28.431 19.345Z" fill="#FFE650"/>
<path d="M12.3388 13.0281C10.6907 13.0281 8.80155 12.1178 7.25907 10.575C5.6796 8.99615 4.7634 7.05324 4.80769 5.37848C4.81599 5.06677 5.06641 4.81629 5.37812 4.80805C7.05653 4.76197 8.99579 5.68016 10.5747 7.2593C12.1541 8.83817 13.0703 10.7811 13.0259 12.4558C13.0176 12.7676 12.7672 13.018 12.4555 13.0263C12.417 13.0275 12.3777 13.0281 12.3388 13.0281Z" fill="#FFE650"/>
<path d="M28.5048 29.1939C26.857 29.1939 24.9675 28.2839 23.425 26.7411C21.8456 25.1617 20.9293 23.2191 20.9737 21.5443C20.982 21.2326 21.2324 20.9821 21.5441 20.9739C23.2071 20.9252 25.1615 21.8457 26.7409 23.4251C28.3201 25.0043 29.2364 26.9469 29.1919 28.6217C29.1836 28.9334 28.9332 29.1839 28.6215 29.1921C28.5829 29.1933 28.5437 29.1939 28.5048 29.1939Z" fill="#FFE650"/>
<path d="M5.49517 29.1939C5.45626 29.1939 5.41708 29.1933 5.37836 29.1922C5.06665 29.1839 4.81617 28.9335 4.80794 28.6218C4.76358 26.9471 5.67978 25.0041 7.25918 23.4252C8.83772 21.8461 10.7812 20.9267 12.4557 20.9739C12.7674 20.9822 13.0179 21.2326 13.0262 21.5443C13.0705 23.219 12.1543 25.162 10.5749 26.7409C9.03269 28.2836 7.14297 29.1939 5.49517 29.1939Z" fill="#FFE650"/>
<path d="M21.6607 13.0281C21.6215 13.0281 21.5826 13.0275 21.5439 13.0264C21.2322 13.0181 20.9817 12.7677 20.9735 12.456C20.9291 10.7813 21.8453 8.83856 23.4247 7.25916C25.0036 5.68002 26.9416 4.75379 28.6213 4.80818C28.933 4.81648 29.1835 5.0669 29.1917 5.37861C29.236 7.0533 28.3198 8.99601 26.7407 10.5751C25.198 12.1178 23.3086 13.0281 21.6607 13.0281Z" fill="#FFE650"/>
<path d="M14.5319 11.629C14.4621 11.629 14.3911 11.6167 14.3221 11.59C12.7575 10.9895 11.3135 9.39951 10.4592 7.3366C9.60444 5.27343 9.50118 3.12792 10.1829 1.59739C10.3095 1.31231 10.6363 1.17518 10.9286 1.28853C12.4932 1.88904 13.9372 3.47907 14.7916 5.54198C15.6463 7.60515 15.7495 9.75066 15.0678 11.2812C14.971 11.4987 14.7572 11.629 14.5319 11.629Z" fill="#FFD741"/>
<path d="M23.2809 32.7507C23.2111 32.7507 23.1401 32.7384 23.0712 32.7117C21.5066 32.1112 20.0626 30.5212 19.2082 28.4583C18.3535 26.3951 18.2502 24.2495 18.9319 22.7191C19.0585 22.434 19.3855 22.2969 19.6776 22.4102C21.2422 23.0107 22.6862 24.6008 23.5406 26.6637C24.3953 28.7269 24.4986 30.8725 23.8168 32.4029C23.72 32.6204 23.5062 32.7507 23.2809 32.7507Z" fill="#FFD741"/>
<path d="M3.9056 24.2639C3.05693 24.2639 2.26803 24.1159 1.59713 23.817C1.31231 23.6903 1.17664 23.3625 1.28827 23.0714C1.88878 21.5068 3.47881 20.0628 5.54172 19.2084C7.60456 18.3534 9.7504 18.2507 11.2809 18.9321C11.5657 19.0589 11.7014 19.3867 11.5898 19.6778C10.9893 21.2424 9.39925 22.6864 7.33634 23.5408C6.17775 24.0208 4.99274 24.2639 3.9056 24.2639Z" fill="#FFD741"/>
<path d="M25.0272 15.5149C24.1785 15.5149 23.3896 15.3669 22.7187 15.0681C22.4339 14.9413 22.2982 14.6135 22.4099 14.3224C23.0104 12.7578 24.6004 11.3138 26.6633 10.4594C28.7261 9.60468 30.8718 9.50142 32.4025 10.1831C32.6873 10.3099 32.823 10.6377 32.7114 10.9288C32.1108 12.4934 30.5208 13.9374 28.4579 14.7918C27.2993 15.2719 26.1142 15.5149 25.0272 15.5149Z" fill="#FFD741"/>
<path d="M8.97246 15.5149C7.88532 15.5149 6.7003 15.2719 5.54172 14.7919C3.47888 13.9375 1.88878 12.4934 1.28827 10.9289C1.17664 10.6378 1.31231 10.3101 1.59713 10.1832C3.12732 9.5017 5.27324 9.60503 7.33634 10.4595C9.39918 11.3139 10.9893 12.7579 11.5898 14.3225C11.7014 14.6136 11.5657 14.9413 11.2809 15.0681C10.61 15.367 9.82086 15.5149 8.97246 15.5149Z" fill="#FFD741"/>
<path d="M30.094 24.2638C29.0069 24.2638 27.8219 24.0209 26.6633 23.5408C24.6005 22.6864 23.0104 21.2424 22.4099 19.6778C22.2982 19.3867 22.4339 19.059 22.7187 18.9322C24.2495 18.2506 26.3951 18.3542 28.4579 19.2084C30.5208 20.0628 32.1108 21.5069 32.7114 23.0714C32.823 23.3625 32.6873 23.6902 32.4025 23.8171C31.7315 24.1158 30.9424 24.2638 30.094 24.2638Z" fill="#FFD741"/>
<path d="M10.7188 32.7505C10.4936 32.7505 10.2797 32.6203 10.183 32.4028C9.50112 30.8722 9.60445 28.7267 10.4592 26.6636C11.3136 24.6007 12.7577 23.0106 14.3222 22.4101C14.6131 22.2982 14.941 22.4339 15.0679 22.719C15.7497 24.2495 15.6464 26.3951 14.7916 28.4582C13.9373 30.521 12.4932 32.1111 10.9287 32.7116C10.8597 32.7379 10.7887 32.7505 10.7188 32.7505Z" fill="#FFD741"/>
<path d="M19.4678 11.629C19.2426 11.629 19.0288 11.4987 18.932 11.2812C18.2501 9.75066 18.3535 7.60508 19.2083 5.54197C20.0626 3.47913 21.5067 1.88904 23.0712 1.28853C23.3624 1.17637 23.6897 1.3123 23.8169 1.59738C24.4988 3.12791 24.3954 5.27349 23.5407 7.3366C22.6863 9.39944 21.2422 10.9895 19.6777 11.59C19.6087 11.6163 19.5377 11.629 19.4678 11.629Z" fill="#FFD741"/>
<path d="M16.9998 19.3448C18.2948 19.3448 19.3446 18.295 19.3446 17C19.3446 15.705 18.2948 14.6552 16.9998 14.6552C15.7048 14.6552 14.655 15.705 14.655 17C14.655 18.295 15.7048 19.3448 16.9998 19.3448Z" fill="#B4D246"/>
</g>
<defs>
<clipPath id="clip0">
<rect width="34" height="34" fill="white"/>
</clipPath>
</defs>
</svg>
